<?xml version="1.0" encoding="utf-8"?>
<!-- Generator: Adobe Illustrator 26.0.3, SVG Export Plug-In . SVG Version: 6.00 Build 0)  -->
<svg version="1.0" id="artwork" xmlns="http://www.w3.org/2000/svg" xmlns:xlink="http://www.w3.org/1999/xlink" x="0px" y="0px"
	 viewBox="0 0 185 130" style="enable-background:new 0 0 185 130;" xml:space="preserve">
<style type="text/css">
	.Graphic_x0020_Style_x0020_2{fill:url(#SVGID_1_);}
	.st0{fill:#FFFFFF;fill-opacity:0;}
	.st1{fill:#A7A6A6;}
	.st2{fill:#FFFFFF;}
	.st3{fill:#5BC9F4;}
	.st4{fill:url(#SVGID_00000133508021466231937120000011791204851756944288_);}
	.st5{fill:url(#SVGID_00000150095803803690048320000001493555931361731739_);}
	.st6{fill:url(#SVGID_00000135650448923708222350000016231388496601019010_);}
	.st7{fill:#FFFFFF;stroke:#FFFFFF;stroke-width:0.2;stroke-miterlimit:10;}
</style>
<linearGradient id="SVGID_1_" gradientUnits="userSpaceOnUse" x1="15" y1="5" x2="14.2929" y2="5.7071">
	<stop  offset="0" style="stop-color:#EF4547"/>
	<stop  offset="1" style="stop-color:#C6186D"/>
</linearGradient>
<g>
	<rect x="15" y="35" class="st0" width="155" height="60"/>
	<g>
		<path d="M155,85H30c-2.8,0-5-2.2-5-5V50c0-2.8,2.2-5,5-5h125c2.8,0,5,2.2,5,5v30C160,82.7,157.8,85,155,85z"/>
	</g>
	<g>
		<g>
			<path class="st1" d="M155,45.8c2.3,0,4.2,1.9,4.2,4.2v30c0,2.3-1.9,4.2-4.2,4.2H30c-2.3,0-4.2-1.9-4.2-4.2V50
				c0-2.3,1.9-4.2,4.2-4.2H155 M155,45H30c-2.8,0-5,2.2-5,5v30c0,2.8,2.2,5,5,5h125c2.8,0,5-2.2,5-5V50C160,47.3,157.8,45,155,45
				L155,45z"/>
		</g>
	</g>
	<path class="st2" d="M93.1,66.8c-2.4,0-4.3,1.8-4.3,4.3c0,2.4,1.9,4.3,4.3,4.3c2.4,0,4.3-1.8,4.3-4.3
		C97.4,68.5,95.5,66.8,93.1,66.8z M93.1,73.6c-1.3,0-2.4-1.1-2.4-2.6c0-1.5,1.1-2.6,2.4-2.6c1.3,0,2.4,1,2.4,2.6
		C95.5,72.5,94.4,73.6,93.1,73.6z M83.8,66.8c-2.4,0-4.3,1.8-4.3,4.3c0,2.4,1.9,4.3,4.3,4.3c2.4,0,4.3-1.8,4.3-4.3
		C88.1,68.5,86.2,66.8,83.8,66.8z M83.8,73.6c-1.3,0-2.4-1.1-2.4-2.6c0-1.5,1.1-2.6,2.4-2.6c1.3,0,2.4,1,2.4,2.6
		C86.2,72.5,85.1,73.6,83.8,73.6z M72.7,68.1v1.8h4.3c-0.1,1-0.5,1.8-1,2.3c-0.6,0.6-1.6,1.3-3.3,1.3c-2.7,0-4.7-2.1-4.7-4.8
		c0-2.7,2.1-4.8,4.7-4.8c1.4,0,2.5,0.6,3.3,1.3l1.3-1.3c-1.1-1-2.5-1.8-4.5-1.8c-3.6,0-6.7,3-6.7,6.6c0,3.6,3.1,6.6,6.7,6.6
		c2,0,3.4-0.6,4.6-1.9c1.2-1.2,1.6-2.9,1.6-4.2c0-0.4,0-0.8-0.1-1.1H72.7z M118.1,69.5c-0.4-1-1.4-2.7-3.6-2.7c-2.2,0-4,1.7-4,4.3
		c0,2.4,1.8,4.3,4.2,4.3c1.9,0,3.1-1.2,3.5-1.9l-1.4-1c-0.5,0.7-1.1,1.2-2.1,1.2c-1,0-1.6-0.4-2.1-1.3l5.7-2.4L118.1,69.5z
		 M112.3,70.9c0-1.6,1.3-2.5,2.2-2.5c0.7,0,1.4,0.4,1.6,0.9L112.3,70.9z M107.6,75h1.9V62.5h-1.9V75z M104.6,67.7L104.6,67.7
		c-0.5-0.5-1.3-1-2.3-1c-2.1,0-4.1,1.9-4.1,4.3c0,2.4,1.9,4.2,4.1,4.2c1,0,1.8-0.5,2.2-1h0.1v0.6c0,1.6-0.9,2.5-2.3,2.5
		c-1.1,0-1.9-0.8-2.1-1.5l-1.6,0.7c0.5,1.1,1.7,2.5,3.8,2.5c2.2,0,4-1.3,4-4.4V67h-1.8V67.7z M102.4,73.6c-1.3,0-2.4-1.1-2.4-2.6
		c0-1.5,1.1-2.6,2.4-2.6c1.3,0,2.3,1.1,2.3,2.6C104.7,72.5,103.7,73.6,102.4,73.6z M126.8,62.5h-4.5V75h1.9v-4.7h2.6
		c2.1,0,4.1-1.5,4.1-3.9C130.9,64,128.9,62.5,126.8,62.5z M126.9,68.5h-2.7v-4.3h2.7c1.4,0,2.2,1.2,2.2,2.1
		C129,67.4,128.2,68.5,126.9,68.5z M138.4,66.7c-1.4,0-2.8,0.6-3.3,1.9l1.7,0.7c0.4-0.7,1-0.9,1.7-0.9c1,0,1.9,0.6,2,1.6v0.1
		c-0.3-0.2-1.1-0.5-1.9-0.5c-1.8,0-3.6,1-3.6,2.8c0,1.7,1.5,2.8,3.1,2.8c1.3,0,1.9-0.6,2.4-1.2h0.1v1h1.8v-4.8
		C142.2,68,140.5,66.7,138.4,66.7z M138.2,73.6c-0.6,0-1.5-0.3-1.5-1.1c0-1,1.1-1.3,2-1.3c0.8,0,1.2,0.2,1.7,0.4
		C140.2,72.8,139.2,73.6,138.2,73.6z M148.7,67l-2.1,5.4h-0.1l-2.2-5.4h-2l3.3,7.6l-1.9,4.2h1.9l5.1-11.8H148.7z M131.9,75h1.9V62.5
		h-1.9V75z"/>
	<g>
		<g>
			<g>
				<path class="st3" d="M35.4,52.5C35.1,52.9,35,53.3,35,54V76c0,0.6,0.2,1.1,0.5,1.4l0.1,0.1l12.4-12.4V65v-0.1L35.4,52.5
					L35.4,52.5z"/>
				
					<linearGradient id="SVGID_00000165203977115910033510000005331284980881633215_" gradientUnits="userSpaceOnUse" x1="56.0888" y1="65.0003" x2="31.912" y2="65.0003">
					<stop  offset="0" style="stop-color:#FEE000"/>
					<stop  offset="0.1941" style="stop-color:#FCCF0B"/>
					<stop  offset="0.5469" style="stop-color:#FAB318"/>
					<stop  offset="0.8279" style="stop-color:#F9A21B"/>
					<stop  offset="1" style="stop-color:#F99B1C"/>
				</linearGradient>
				<path style="fill:url(#SVGID_00000165203977115910033510000005331284980881633215_);" d="M52,69.3l-4.1-4.1V65v-0.1l4.1-4.1
					l0.1,0.1l4.9,2.8c1.4,0.8,1.4,2.1,0,2.9L52,69.3L52,69.3z"/>
				
					<linearGradient id="SVGID_00000115481149150402287280000008055129699387955867_" gradientUnits="userSpaceOnUse" x1="49.8146" y1="67.2931" x2="27.0751" y2="90.0326">
					<stop  offset="0" style="stop-color:#EF4547"/>
					<stop  offset="1" style="stop-color:#C6186D"/>
				</linearGradient>
				<path style="fill:url(#SVGID_00000115481149150402287280000008055129699387955867_);" d="M52.1,69.2L47.9,65L35.4,77.5
					c0.5,0.5,1.2,0.5,2.1,0.1L52.1,69.2"/>
				
					<linearGradient id="SVGID_00000061464700905643481230000005022760584468098482_" gradientUnits="userSpaceOnUse" x1="26.9738" y1="39.8659" x2="45.54" y2="58.4321">
					<stop  offset="0" style="stop-color:#279E6F"/>
					<stop  offset="0.3168" style="stop-color:#4DAB6D"/>
					<stop  offset="0.7398" style="stop-color:#6ABA6A"/>
					<stop  offset="1" style="stop-color:#74C169"/>
				</linearGradient>
				<path style="fill:url(#SVGID_00000061464700905643481230000005022760584468098482_);" d="M52.1,60.8l-14.6-8.3
					c-0.9-0.5-1.6-0.4-2.1,0.1L47.9,65L52.1,60.8z"/>
			</g>
		</g>
	</g>
</g>
<g>
	<path class="st7" d="M70.7,52L70.7,52l-2.2,2.6l2.4,3.4v0h-0.9l-2-2.8L67,56.3V58h-0.8v-6H67v3.1h0l2.6-3.1H70.7z"/>
	<path class="st7" d="M73.7,58.1c-0.7,0-1.2-0.2-1.6-0.7c-0.4-0.4-0.6-1-0.6-1.7V52h0.8v3.8c0,0.5,0.1,0.9,0.4,1.2
		c0.2,0.3,0.6,0.4,1.1,0.4c0.5,0,0.8-0.1,1.1-0.4c0.2-0.3,0.4-0.7,0.4-1.2V52h0.8v3.8c0,0.7-0.2,1.3-0.6,1.7
		C74.9,57.9,74.4,58.1,73.7,58.1z"/>
	<path class="st7" d="M79.2,58h-0.8v-5.3h-1.7V52h4.1v0.7h-1.7V58z"/>
	<path class="st7" d="M81.9,58v-6h0.8v2.6h3V52h0.8v6h-0.8v-2.7h-3V58H81.9z"/>
	<path class="st7" d="M92.7,57.2c-0.6,0.6-1.3,0.9-2.2,0.9c-0.9,0-1.6-0.3-2.2-0.9c-0.6-0.6-0.9-1.3-0.9-2.2s0.3-1.6,0.9-2.2
		c0.6-0.6,1.3-0.9,2.2-0.9c0.9,0,1.6,0.3,2.2,0.9c0.6,0.6,0.9,1.3,0.9,2.2C93.6,55.9,93.3,56.6,92.7,57.2z M88.9,56.7
		c0.4,0.4,1,0.7,1.6,0.7s1.2-0.2,1.6-0.7c0.4-0.4,0.7-1,0.7-1.7s-0.2-1.3-0.7-1.7c-0.4-0.4-1-0.7-1.6-0.7s-1.2,0.2-1.6,0.7
		c-0.4,0.4-0.7,1-0.7,1.7S88.4,56.3,88.9,56.7z"/>
	<path class="st7" d="M94.7,58v-6h0.8v5.3H98V58H94.7z"/>
	<path class="st7" d="M102.5,52.7h-2.7v1.9h2.5v0.7h-2.5v1.9h2.7V58H99v-6h3.5V52.7z"/>
	<path class="st7" d="M110.2,52L110.2,52l-2.2,2.6l2.4,3.4v0h-0.9l-2-2.8l-0.9,1.1V58h-0.8v-6h0.8v3.1h0l2.6-3.1H110.2z"/>
	<path class="st7" d="M113.2,58.1c-0.7,0-1.2-0.2-1.6-0.7c-0.4-0.4-0.6-1-0.6-1.7V52h0.8v3.8c0,0.5,0.1,0.9,0.4,1.2
		c0.2,0.3,0.6,0.4,1.1,0.4c0.5,0,0.8-0.1,1.1-0.4c0.2-0.3,0.4-0.7,0.4-1.2V52h0.8v3.8c0,0.7-0.2,1.3-0.6,1.7
		C114.4,57.9,113.9,58.1,113.2,58.1z"/>
	<path class="st7" d="M116.5,55.2v-0.6h2.7v0.6H116.5z"/>
</g>
</svg>
